# xmcd
#
# Track frame offsets:
#	150
#	10990
#	24150
#	35027
#	44250
#	57000
#	70270
#	82915
#	94620
#	104460
#	118412
#	131565
#
# Disc length: 2025 seconds
#
# Revision: 2
# Processed by: cddbd v1.5.1PL0 Copyright (c) Steve Scherf et al.
# Submitted via: MusicManager 7.2.0.0 
#
DISCID=9807e70c
DTITLE=Charley Pride - All I Have To Offer You Is Me (Greatest Hits)
DYEAR=1998
DGENRE=Country
TTITLE0=Does My Ring Hurt Your Finger
TTITLE1=All I Have To Offer You Is Me
TTITLE2=Is Anybody Goin' To San Antone
TTITLE3=Kiss An ANgel Good Morning
TTITLE4=She's Too Good To Be True
TTITLE5=Amazing Love
TTITLE6=Hope You're Feelin' Me (Like I'm Feelin' You)
TTITLE7=She's Just An Old Love
TTITLE8=Someone Loves You Honey
TTITLE9=Never Been So Loved (In All My Life)
TTITLE10=Mountain Of Love
TTITLE11=You're So Good When You're Bad
EXTD=
EXTT0=
EXTT1=
EXTT2=
EXTT3=
EXTT4=
EXTT5=
EXTT6=
EXTT7=
EXTT8=
EXTT9=
EXTT10=
EXTT11=
PLAYORDER=
